<mxfile host="app.diagrams.net" modified="2023-01-26T09:48:09.061Z" agent="5.0 (Windows NT 10.0; Win64; x64) AppleWebKit/537.36 (KHTML, like Gecko) Chrome/108.0.0.0 Safari/537.36" etag="zSZqUPq5c3Cfxd2-uva_" version="20.5.3" type="github">
  <diagram id="3GtSoxnZbV8ghQ3h_CIx" name="Trang-1">
    <mxGraphModel dx="1298" dy="651" grid="1" gridSize="10" guides="1" tooltips="1" connect="1" arrows="1" fold="1" page="1" pageScale="1" pageWidth="827" pageHeight="1169" math="0" shadow="0">
      <root>
        <mxCell id="0" />
        <mxCell id="1" parent="0" />
        <mxCell id="jq8WtkvF8zyzPVdU1UzF-14" value="" style="rounded=0;orthogonalLoop=1;jettySize=auto;html=1;fontFamily=Helvetica;fontSize=12;fontColor=default;endArrow=none;endFill=0;" edge="1" parent="1" source="jq8WtkvF8zyzPVdU1UzF-1" target="jq8WtkvF8zyzPVdU1UzF-13">
          <mxGeometry relative="1" as="geometry" />
        </mxCell>
        <mxCell id="jq8WtkvF8zyzPVdU1UzF-16" value="" style="rounded=0;orthogonalLoop=1;jettySize=auto;html=1;fontFamily=Helvetica;fontSize=12;fontColor=default;endArrow=none;endFill=0;" edge="1" parent="1" source="jq8WtkvF8zyzPVdU1UzF-1" target="jq8WtkvF8zyzPVdU1UzF-15">
          <mxGeometry relative="1" as="geometry" />
        </mxCell>
        <mxCell id="jq8WtkvF8zyzPVdU1UzF-19" value="" style="rounded=0;orthogonalLoop=1;jettySize=auto;html=1;fontFamily=Helvetica;fontSize=12;fontColor=default;entryX=0;entryY=0.5;entryDx=0;entryDy=0;endArrow=none;endFill=0;" edge="1" parent="1" target="jq8WtkvF8zyzPVdU1UzF-18">
          <mxGeometry relative="1" as="geometry">
            <mxPoint x="80" y="340" as="sourcePoint" />
          </mxGeometry>
        </mxCell>
        <mxCell id="jq8WtkvF8zyzPVdU1UzF-1" value="Cư dân" style="shape=umlActor;verticalLabelPosition=bottom;verticalAlign=top;html=1;outlineConnect=0;" vertex="1" parent="1">
          <mxGeometry x="50" y="300" width="30" height="60" as="geometry" />
        </mxCell>
        <mxCell id="jq8WtkvF8zyzPVdU1UzF-45" value="" style="edgeStyle=none;rounded=0;orthogonalLoop=1;jettySize=auto;html=1;fontFamily=Helvetica;fontSize=12;fontColor=default;endArrow=none;endFill=0;" edge="1" parent="1" source="jq8WtkvF8zyzPVdU1UzF-2" target="jq8WtkvF8zyzPVdU1UzF-7">
          <mxGeometry relative="1" as="geometry" />
        </mxCell>
        <mxCell id="jq8WtkvF8zyzPVdU1UzF-47" value="" style="edgeStyle=none;rounded=0;orthogonalLoop=1;jettySize=auto;html=1;fontFamily=Helvetica;fontSize=12;fontColor=default;endArrow=none;endFill=0;" edge="1" parent="1" source="jq8WtkvF8zyzPVdU1UzF-2" target="jq8WtkvF8zyzPVdU1UzF-46">
          <mxGeometry relative="1" as="geometry" />
        </mxCell>
        <mxCell id="jq8WtkvF8zyzPVdU1UzF-49" value="" style="edgeStyle=none;rounded=0;orthogonalLoop=1;jettySize=auto;html=1;fontFamily=Helvetica;fontSize=12;fontColor=default;endArrow=none;endFill=0;" edge="1" parent="1" source="jq8WtkvF8zyzPVdU1UzF-2" target="jq8WtkvF8zyzPVdU1UzF-48">
          <mxGeometry relative="1" as="geometry" />
        </mxCell>
        <mxCell id="jq8WtkvF8zyzPVdU1UzF-2" value="Bộ phận xử lý Khảo sát" style="shape=umlActor;verticalLabelPosition=bottom;verticalAlign=top;html=1;outlineConnect=0;" vertex="1" parent="1">
          <mxGeometry x="1110" y="360" width="30" height="60" as="geometry" />
        </mxCell>
        <mxCell id="jq8WtkvF8zyzPVdU1UzF-51" value="" style="edgeStyle=none;rounded=0;orthogonalLoop=1;jettySize=auto;html=1;fontFamily=Helvetica;fontSize=12;fontColor=default;endArrow=open;endFill=0;dashed=1;" edge="1" parent="1" source="jq8WtkvF8zyzPVdU1UzF-7" target="jq8WtkvF8zyzPVdU1UzF-50">
          <mxGeometry relative="1" as="geometry" />
        </mxCell>
        <mxCell id="jq8WtkvF8zyzPVdU1UzF-54" value="" style="edgeStyle=none;rounded=0;orthogonalLoop=1;jettySize=auto;html=1;dashed=1;fontFamily=Helvetica;fontSize=12;fontColor=default;startArrow=none;startFill=0;endArrow=open;endFill=0;" edge="1" parent="1" source="jq8WtkvF8zyzPVdU1UzF-7" target="jq8WtkvF8zyzPVdU1UzF-53">
          <mxGeometry relative="1" as="geometry" />
        </mxCell>
        <mxCell id="jq8WtkvF8zyzPVdU1UzF-7" value="CRUD khảo sát" style="ellipse;whiteSpace=wrap;html=1;strokeColor=default;fontFamily=Helvetica;fontSize=12;fontColor=default;fillColor=default;" vertex="1" parent="1">
          <mxGeometry x="830" y="290" width="120" height="40" as="geometry" />
        </mxCell>
        <mxCell id="jq8WtkvF8zyzPVdU1UzF-23" value="" style="rounded=0;orthogonalLoop=1;jettySize=auto;html=1;fontFamily=Helvetica;fontSize=12;fontColor=default;dashed=1;endArrow=open;endFill=0;" edge="1" parent="1" source="jq8WtkvF8zyzPVdU1UzF-13" target="jq8WtkvF8zyzPVdU1UzF-22">
          <mxGeometry relative="1" as="geometry" />
        </mxCell>
        <mxCell id="jq8WtkvF8zyzPVdU1UzF-13" value="xem danh sách khảo sát" style="ellipse;whiteSpace=wrap;html=1;verticalAlign=top;" vertex="1" parent="1">
          <mxGeometry x="160" y="275" width="145" height="40" as="geometry" />
        </mxCell>
        <mxCell id="jq8WtkvF8zyzPVdU1UzF-25" value="" style="rounded=0;orthogonalLoop=1;jettySize=auto;html=1;dashed=1;fontFamily=Helvetica;fontSize=12;fontColor=default;endArrow=open;endFill=0;" edge="1" parent="1" source="jq8WtkvF8zyzPVdU1UzF-15" target="jq8WtkvF8zyzPVdU1UzF-24">
          <mxGeometry relative="1" as="geometry" />
        </mxCell>
        <mxCell id="jq8WtkvF8zyzPVdU1UzF-30" value="" style="rounded=0;orthogonalLoop=1;jettySize=auto;html=1;dashed=1;fontFamily=Helvetica;fontSize=12;fontColor=default;exitX=1;exitY=0.5;exitDx=0;exitDy=0;entryX=0;entryY=0.5;entryDx=0;entryDy=0;endArrow=open;endFill=0;" edge="1" parent="1" source="jq8WtkvF8zyzPVdU1UzF-15" target="jq8WtkvF8zyzPVdU1UzF-29">
          <mxGeometry relative="1" as="geometry" />
        </mxCell>
        <mxCell id="jq8WtkvF8zyzPVdU1UzF-32" value="" style="edgeStyle=none;rounded=0;orthogonalLoop=1;jettySize=auto;html=1;dashed=1;fontFamily=Helvetica;fontSize=12;fontColor=default;endArrow=open;endFill=0;startArrow=none;exitX=1;exitY=1;exitDx=0;exitDy=0;" edge="1" parent="1" source="jq8WtkvF8zyzPVdU1UzF-15" target="jq8WtkvF8zyzPVdU1UzF-31">
          <mxGeometry relative="1" as="geometry">
            <mxPoint x="437.7259488453881" y="439.41123683945466" as="sourcePoint" />
          </mxGeometry>
        </mxCell>
        <mxCell id="jq8WtkvF8zyzPVdU1UzF-35" value="" style="edgeStyle=none;rounded=0;orthogonalLoop=1;jettySize=auto;html=1;dashed=1;fontFamily=Helvetica;fontSize=12;fontColor=default;endArrow=open;endFill=0;" edge="1" parent="1" source="jq8WtkvF8zyzPVdU1UzF-15" target="jq8WtkvF8zyzPVdU1UzF-34">
          <mxGeometry relative="1" as="geometry" />
        </mxCell>
        <mxCell id="jq8WtkvF8zyzPVdU1UzF-15" value="Tham gia khảo sát" style="ellipse;whiteSpace=wrap;html=1;verticalAlign=top;" vertex="1" parent="1">
          <mxGeometry x="165" y="360" width="140" height="30" as="geometry" />
        </mxCell>
        <mxCell id="jq8WtkvF8zyzPVdU1UzF-18" value="Xem kết quả khảo sát" style="ellipse;whiteSpace=wrap;html=1;verticalAlign=top;" vertex="1" parent="1">
          <mxGeometry x="170" y="470" width="150" height="30" as="geometry" />
        </mxCell>
        <mxCell id="jq8WtkvF8zyzPVdU1UzF-22" value="Phân loại danh sách" style="ellipse;whiteSpace=wrap;html=1;verticalAlign=top;" vertex="1" parent="1">
          <mxGeometry x="440" y="230" width="120" height="30" as="geometry" />
        </mxCell>
        <mxCell id="jq8WtkvF8zyzPVdU1UzF-24" value="Xem danh sách lựa chọn" style="ellipse;whiteSpace=wrap;html=1;verticalAlign=top;" vertex="1" parent="1">
          <mxGeometry x="430" y="300" width="140" height="30" as="geometry" />
        </mxCell>
        <mxCell id="jq8WtkvF8zyzPVdU1UzF-29" value="Thêm lựa chọn khác" style="ellipse;whiteSpace=wrap;html=1;verticalAlign=top;" vertex="1" parent="1">
          <mxGeometry x="430" y="370" width="140" height="30" as="geometry" />
        </mxCell>
        <mxCell id="jq8WtkvF8zyzPVdU1UzF-31" value="Gửi lựa chọn" style="ellipse;whiteSpace=wrap;html=1;verticalAlign=top;" vertex="1" parent="1">
          <mxGeometry x="430" y="440" width="140" height="30" as="geometry" />
        </mxCell>
        <mxCell id="jq8WtkvF8zyzPVdU1UzF-34" value="Thay đổi lựa chọn" style="ellipse;whiteSpace=wrap;html=1;verticalAlign=top;" vertex="1" parent="1">
          <mxGeometry x="430" y="520" width="140" height="30" as="geometry" />
        </mxCell>
        <mxCell id="jq8WtkvF8zyzPVdU1UzF-38" value="&amp;lt;&amp;lt;include&amp;gt;&amp;gt;" style="text;html=1;align=center;verticalAlign=middle;resizable=0;points=[];autosize=1;strokeColor=none;fillColor=none;fontSize=12;fontFamily=Helvetica;fontColor=default;rotation=-15;" vertex="1" parent="1">
          <mxGeometry x="310" y="245" width="90" height="30" as="geometry" />
        </mxCell>
        <mxCell id="jq8WtkvF8zyzPVdU1UzF-39" value="&amp;lt;&amp;lt;include&amp;gt;&amp;gt;" style="text;html=1;align=center;verticalAlign=middle;resizable=0;points=[];autosize=1;strokeColor=none;fillColor=none;fontSize=12;fontFamily=Helvetica;fontColor=default;rotation=-15;" vertex="1" parent="1">
          <mxGeometry x="320" y="320" width="90" height="30" as="geometry" />
        </mxCell>
        <mxCell id="jq8WtkvF8zyzPVdU1UzF-40" value="&amp;lt;&amp;lt;include&amp;gt;&amp;gt;" style="text;html=1;align=center;verticalAlign=middle;resizable=0;points=[];autosize=1;strokeColor=none;fillColor=none;fontSize=12;fontFamily=Helvetica;fontColor=default;" vertex="1" parent="1">
          <mxGeometry x="310" y="360" width="90" height="30" as="geometry" />
        </mxCell>
        <mxCell id="jq8WtkvF8zyzPVdU1UzF-42" value="&amp;lt;&amp;lt;include&amp;gt;&amp;gt;" style="text;html=1;align=center;verticalAlign=middle;resizable=0;points=[];autosize=1;strokeColor=none;fillColor=none;fontSize=12;fontFamily=Helvetica;fontColor=default;rotation=30;" vertex="1" parent="1">
          <mxGeometry x="310" y="450" width="90" height="30" as="geometry" />
        </mxCell>
        <mxCell id="jq8WtkvF8zyzPVdU1UzF-44" value="&amp;lt;&amp;lt;include&amp;gt;&amp;gt;" style="text;html=1;align=center;verticalAlign=middle;resizable=0;points=[];autosize=1;strokeColor=none;fillColor=none;fontSize=12;fontFamily=Helvetica;fontColor=default;rotation=15;" vertex="1" parent="1">
          <mxGeometry x="324" y="400" width="90" height="30" as="geometry" />
        </mxCell>
        <mxCell id="jq8WtkvF8zyzPVdU1UzF-46" value="Xem danh sách người tham gia khảo sát" style="ellipse;whiteSpace=wrap;html=1;verticalAlign=top;" vertex="1" parent="1">
          <mxGeometry x="820" y="360" width="140" height="40" as="geometry" />
        </mxCell>
        <mxCell id="jq8WtkvF8zyzPVdU1UzF-56" value="" style="edgeStyle=none;rounded=0;orthogonalLoop=1;jettySize=auto;html=1;dashed=1;fontFamily=Helvetica;fontSize=12;fontColor=default;startArrow=none;startFill=0;endArrow=open;endFill=0;" edge="1" parent="1" source="jq8WtkvF8zyzPVdU1UzF-48" target="jq8WtkvF8zyzPVdU1UzF-55">
          <mxGeometry relative="1" as="geometry" />
        </mxCell>
        <mxCell id="jq8WtkvF8zyzPVdU1UzF-70" value="" style="edgeStyle=none;rounded=0;orthogonalLoop=1;jettySize=auto;html=1;dashed=1;fontFamily=Helvetica;fontSize=12;fontColor=default;startArrow=none;startFill=0;endArrow=open;endFill=0;" edge="1" parent="1" source="jq8WtkvF8zyzPVdU1UzF-48" target="jq8WtkvF8zyzPVdU1UzF-69">
          <mxGeometry relative="1" as="geometry" />
        </mxCell>
        <mxCell id="jq8WtkvF8zyzPVdU1UzF-48" value="Tạo báo cáo khảo sát đã kết thúc" style="ellipse;whiteSpace=wrap;html=1;verticalAlign=top;" vertex="1" parent="1">
          <mxGeometry x="820" y="450" width="150" height="40" as="geometry" />
        </mxCell>
        <mxCell id="jq8WtkvF8zyzPVdU1UzF-50" value="Tạo danh sách lựa chọn" style="ellipse;whiteSpace=wrap;html=1;strokeColor=default;fontFamily=Helvetica;fontSize=12;fontColor=default;fillColor=default;" vertex="1" parent="1">
          <mxGeometry x="630" y="230" width="130" height="40" as="geometry" />
        </mxCell>
        <mxCell id="jq8WtkvF8zyzPVdU1UzF-53" value="Lập lịch khảo sát" style="ellipse;whiteSpace=wrap;html=1;strokeColor=default;fontFamily=Helvetica;fontSize=12;fontColor=default;fillColor=default;" vertex="1" parent="1">
          <mxGeometry x="630" y="290" width="120" height="40" as="geometry" />
        </mxCell>
        <mxCell id="jq8WtkvF8zyzPVdU1UzF-61" value="" style="swimlane;startSize=0;strokeColor=default;fontFamily=Helvetica;fontSize=12;fontColor=default;fillColor=default;html=1;" vertex="1" parent="1">
          <mxGeometry x="140" y="160" width="860" height="430" as="geometry">
            <mxRectangle x="140" y="160" width="50" height="40" as="alternateBounds" />
          </mxGeometry>
        </mxCell>
        <mxCell id="jq8WtkvF8zyzPVdU1UzF-55" value="Thống kê kết quả" style="ellipse;whiteSpace=wrap;html=1;verticalAlign=top;" vertex="1" parent="jq8WtkvF8zyzPVdU1UzF-61">
          <mxGeometry x="490" y="360" width="150" height="30" as="geometry" />
        </mxCell>
        <mxCell id="jq8WtkvF8zyzPVdU1UzF-69" value="TÌnh toán kết quả khảo sát" style="ellipse;whiteSpace=wrap;html=1;verticalAlign=top;" vertex="1" parent="jq8WtkvF8zyzPVdU1UzF-61">
          <mxGeometry x="440" y="250" width="150" height="30" as="geometry" />
        </mxCell>
        <mxCell id="jq8WtkvF8zyzPVdU1UzF-71" value="&amp;lt;&amp;lt;include&amp;gt;&amp;gt;" style="text;html=1;align=center;verticalAlign=middle;resizable=0;points=[];autosize=1;strokeColor=none;fillColor=none;fontSize=12;fontFamily=Helvetica;fontColor=default;rotation=15;" vertex="1" parent="jq8WtkvF8zyzPVdU1UzF-61">
          <mxGeometry x="620" y="90" width="90" height="30" as="geometry" />
        </mxCell>
        <mxCell id="jq8WtkvF8zyzPVdU1UzF-72" value="&amp;lt;&amp;lt;include&amp;gt;&amp;gt;" style="text;html=1;align=center;verticalAlign=middle;resizable=0;points=[];autosize=1;strokeColor=none;fillColor=none;fontSize=12;fontFamily=Helvetica;fontColor=default;rotation=0;" vertex="1" parent="jq8WtkvF8zyzPVdU1UzF-61">
          <mxGeometry x="610" y="150" width="90" height="30" as="geometry" />
        </mxCell>
        <mxCell id="jq8WtkvF8zyzPVdU1UzF-73" value="&amp;lt;&amp;lt;include&amp;gt;&amp;gt;" style="text;html=1;align=center;verticalAlign=middle;resizable=0;points=[];autosize=1;strokeColor=none;fillColor=none;fontSize=12;fontFamily=Helvetica;fontColor=default;rotation=15;" vertex="1" parent="jq8WtkvF8zyzPVdU1UzF-61">
          <mxGeometry x="600" y="260" width="90" height="30" as="geometry" />
        </mxCell>
        <mxCell id="jq8WtkvF8zyzPVdU1UzF-74" value="&amp;lt;&amp;lt;include&amp;gt;&amp;gt;" style="text;html=1;align=center;verticalAlign=middle;resizable=0;points=[];autosize=1;strokeColor=none;fillColor=none;fontSize=12;fontFamily=Helvetica;fontColor=default;rotation=-15;" vertex="1" parent="jq8WtkvF8zyzPVdU1UzF-61">
          <mxGeometry x="597" y="320" width="90" height="30" as="geometry" />
        </mxCell>
        <mxCell id="jq8WtkvF8zyzPVdU1UzF-66" value="E-Vote" style="text;html=1;align=center;verticalAlign=middle;resizable=0;points=[];autosize=1;strokeColor=none;fillColor=none;fontSize=12;fontFamily=Helvetica;fontColor=default;" vertex="1" parent="1">
          <mxGeometry x="530" y="175" width="60" height="30" as="geometry" />
        </mxCell>
      </root>
    </mxGraphModel>
  </diagram>
</mxfile>
